<mxfile host="Electron" agent="Mozilla/5.0 (Windows NT 10.0; Win64; x64) AppleWebKit/537.36 (KHTML, like Gecko) draw.io/24.7.17 Chrome/128.0.6613.36 Electron/32.0.1 Safari/537.36" version="24.7.17">
  <diagram name="Pagina-1" id="NRdabR6jRzv1i__fMUOv">
    <mxGraphModel dx="2327" dy="1024" grid="1" gridSize="10" guides="1" tooltips="1" connect="1" arrows="1" fold="1" page="1" pageScale="1" pageWidth="827" pageHeight="1169" math="0" shadow="0">
      <root>
        <mxCell id="0" />
        <mxCell id="1" parent="0" />
        <mxCell id="-j8Uv2b7K93E1imjDtDR-1" value="vincolo non esprimibile" style="swimlane;fontStyle=0;childLayout=stackLayout;horizontal=1;startSize=26;horizontalStack=0;resizeParent=1;resizeParentMax=0;resizeLast=0;collapsible=1;marginBottom=0;align=center;fontSize=14;" parent="1" vertex="1">
          <mxGeometry x="450" y="920" width="160" height="56" as="geometry">
            <mxRectangle x="660" y="660" width="180" height="30" as="alternateBounds" />
          </mxGeometry>
        </mxCell>
        <mxCell id="gjxJROLc9OKszj8mcPuR-3" value="gestione delle foto dei prodotti" style="text;strokeColor=none;fillColor=none;align=left;verticalAlign=middle;spacingLeft=4;spacingRight=4;overflow=hidden;points=[[0,0.5],[1,0.5]];portConstraint=eastwest;rotatable=0;whiteSpace=wrap;html=1;" vertex="1" parent="-j8Uv2b7K93E1imjDtDR-1">
          <mxGeometry y="26" width="160" height="30" as="geometry" />
        </mxCell>
        <mxCell id="SjlvnA77EbKESXoycACg-14" style="edgeStyle=orthogonalEdgeStyle;rounded=0;orthogonalLoop=1;jettySize=auto;html=1;exitX=0;exitY=0.5;exitDx=0;exitDy=0;entryX=1;entryY=0.5;entryDx=0;entryDy=0;fontFamily=Times New Roman;fontSize=20;fontColor=default;endArrow=none;endFill=0;" parent="1" source="SjlvnA77EbKESXoycACg-2" target="SjlvnA77EbKESXoycACg-6" edge="1">
          <mxGeometry relative="1" as="geometry" />
        </mxCell>
        <mxCell id="SjlvnA77EbKESXoycACg-30" style="edgeStyle=orthogonalEdgeStyle;shape=connector;rounded=0;orthogonalLoop=1;jettySize=auto;html=1;exitX=0;exitY=0.25;exitDx=0;exitDy=0;entryX=0.5;entryY=1;entryDx=0;entryDy=0;strokeColor=default;align=center;verticalAlign=middle;fontFamily=Times New Roman;fontSize=20;fontColor=default;labelBackgroundColor=default;endArrow=none;endFill=0;" parent="1" source="SjlvnA77EbKESXoycACg-2" target="SjlvnA77EbKESXoycACg-28" edge="1">
          <mxGeometry relative="1" as="geometry">
            <Array as="points">
              <mxPoint x="-410" y="240" />
              <mxPoint x="-570" y="240" />
            </Array>
          </mxGeometry>
        </mxCell>
        <mxCell id="SjlvnA77EbKESXoycACg-2" value="CLIENTE" style="rounded=0;whiteSpace=wrap;html=1;fontFamily=Times New Roman;fontSize=20;" parent="1" vertex="1">
          <mxGeometry x="-410" y="280" width="120" height="60" as="geometry" />
        </mxCell>
        <mxCell id="SjlvnA77EbKESXoycACg-29" style="edgeStyle=orthogonalEdgeStyle;shape=connector;rounded=0;orthogonalLoop=1;jettySize=auto;html=1;exitX=0.5;exitY=1;exitDx=0;exitDy=0;entryX=0;entryY=0;entryDx=0;entryDy=0;strokeColor=default;align=center;verticalAlign=middle;fontFamily=Times New Roman;fontSize=20;fontColor=default;labelBackgroundColor=default;endArrow=none;endFill=0;" parent="1" source="SjlvnA77EbKESXoycACg-3" target="SjlvnA77EbKESXoycACg-2" edge="1">
          <mxGeometry relative="1" as="geometry" />
        </mxCell>
        <mxCell id="SjlvnA77EbKESXoycACg-3" value="password" style="ellipse;whiteSpace=wrap;html=1;fontSize=20;fontFamily=Times New Roman;" parent="1" vertex="1">
          <mxGeometry x="-490" y="90" width="100" height="60" as="geometry" />
        </mxCell>
        <mxCell id="SjlvnA77EbKESXoycACg-18" style="edgeStyle=orthogonalEdgeStyle;shape=connector;rounded=0;orthogonalLoop=1;jettySize=auto;html=1;exitX=0;exitY=1;exitDx=0;exitDy=0;entryX=1;entryY=0;entryDx=0;entryDy=0;strokeColor=default;align=center;verticalAlign=middle;fontFamily=Times New Roman;fontSize=20;fontColor=default;labelBackgroundColor=default;endArrow=none;endFill=0;" parent="1" source="SjlvnA77EbKESXoycACg-5" target="SjlvnA77EbKESXoycACg-2" edge="1">
          <mxGeometry relative="1" as="geometry" />
        </mxCell>
        <mxCell id="SjlvnA77EbKESXoycACg-5" value="id_cliente" style="ellipse;whiteSpace=wrap;html=1;fontSize=20;fontFamily=Times New Roman;fontStyle=4" parent="1" vertex="1">
          <mxGeometry x="-200" y="190" width="100" height="60" as="geometry" />
        </mxCell>
        <mxCell id="SjlvnA77EbKESXoycACg-13" style="edgeStyle=orthogonalEdgeStyle;rounded=0;orthogonalLoop=1;jettySize=auto;html=1;exitX=0;exitY=0.5;exitDx=0;exitDy=0;entryX=1;entryY=0.5;entryDx=0;entryDy=0;fontFamily=Times New Roman;fontSize=20;fontColor=default;endArrow=none;endFill=0;" parent="1" source="SjlvnA77EbKESXoycACg-6" target="SjlvnA77EbKESXoycACg-9" edge="1">
          <mxGeometry relative="1" as="geometry" />
        </mxCell>
        <mxCell id="SjlvnA77EbKESXoycACg-6" value="indirizzo" style="ellipse;whiteSpace=wrap;html=1;fontSize=20;fontFamily=Times New Roman;" parent="1" vertex="1">
          <mxGeometry x="-560" y="280" width="100" height="60" as="geometry" />
        </mxCell>
        <mxCell id="SjlvnA77EbKESXoycACg-16" style="edgeStyle=orthogonalEdgeStyle;shape=connector;rounded=0;orthogonalLoop=1;jettySize=auto;html=1;exitX=0.5;exitY=1;exitDx=0;exitDy=0;entryX=0.25;entryY=0;entryDx=0;entryDy=0;strokeColor=default;align=center;verticalAlign=middle;fontFamily=Times New Roman;fontSize=20;fontColor=default;labelBackgroundColor=default;endArrow=none;endFill=0;" parent="1" source="SjlvnA77EbKESXoycACg-7" target="SjlvnA77EbKESXoycACg-2" edge="1">
          <mxGeometry relative="1" as="geometry">
            <Array as="points">
              <mxPoint x="-390" y="160" />
              <mxPoint x="-390" y="220" />
              <mxPoint x="-380" y="220" />
            </Array>
          </mxGeometry>
        </mxCell>
        <mxCell id="SjlvnA77EbKESXoycACg-7" value="email" style="ellipse;whiteSpace=wrap;html=1;fontSize=20;fontFamily=Times New Roman;" parent="1" vertex="1">
          <mxGeometry x="-380" y="90" width="100" height="60" as="geometry" />
        </mxCell>
        <mxCell id="SjlvnA77EbKESXoycACg-17" style="edgeStyle=orthogonalEdgeStyle;shape=connector;rounded=0;orthogonalLoop=1;jettySize=auto;html=1;exitX=0.5;exitY=1;exitDx=0;exitDy=0;entryX=0.5;entryY=0;entryDx=0;entryDy=0;strokeColor=default;align=center;verticalAlign=middle;fontFamily=Times New Roman;fontSize=20;fontColor=default;labelBackgroundColor=default;endArrow=none;endFill=0;" parent="1" source="SjlvnA77EbKESXoycACg-8" target="SjlvnA77EbKESXoycACg-2" edge="1">
          <mxGeometry relative="1" as="geometry" />
        </mxCell>
        <mxCell id="SjlvnA77EbKESXoycACg-8" value="username" style="ellipse;whiteSpace=wrap;html=1;fontSize=20;fontFamily=Times New Roman;" parent="1" vertex="1">
          <mxGeometry x="-270" y="100" width="100" height="60" as="geometry" />
        </mxCell>
        <mxCell id="SjlvnA77EbKESXoycACg-9" value="composto" style="swimlane;fontStyle=0;childLayout=stackLayout;horizontal=1;startSize=30;horizontalStack=0;resizeParent=1;resizeParentMax=0;resizeLast=0;collapsible=1;marginBottom=0;whiteSpace=wrap;html=1;strokeColor=default;align=center;verticalAlign=middle;fontFamily=Times New Roman;fontSize=20;fontColor=default;fillColor=default;" parent="1" vertex="1" collapsed="1">
          <mxGeometry x="-740" y="250" width="120" height="40" as="geometry">
            <mxRectangle x="-250" y="280" width="140" height="210" as="alternateBounds" />
          </mxGeometry>
        </mxCell>
        <mxCell id="SjlvnA77EbKESXoycACg-10" value="civico" style="text;strokeColor=none;fillColor=none;align=left;verticalAlign=middle;spacingLeft=4;spacingRight=4;overflow=hidden;points=[[0,0.5],[1,0.5]];portConstraint=eastwest;rotatable=0;whiteSpace=wrap;html=1;fontFamily=Times New Roman;fontSize=20;fontColor=default;" parent="SjlvnA77EbKESXoycACg-9" vertex="1">
          <mxGeometry y="30" width="140" height="30" as="geometry" />
        </mxCell>
        <mxCell id="SjlvnA77EbKESXoycACg-11" value="via" style="text;strokeColor=none;fillColor=none;align=left;verticalAlign=middle;spacingLeft=4;spacingRight=4;overflow=hidden;points=[[0,0.5],[1,0.5]];portConstraint=eastwest;rotatable=0;whiteSpace=wrap;html=1;fontFamily=Times New Roman;fontSize=20;fontColor=default;" parent="SjlvnA77EbKESXoycACg-9" vertex="1">
          <mxGeometry y="60" width="140" height="30" as="geometry" />
        </mxCell>
        <mxCell id="SjlvnA77EbKESXoycACg-12" value="cittÃ " style="text;strokeColor=none;fillColor=none;align=left;verticalAlign=middle;spacingLeft=4;spacingRight=4;overflow=hidden;points=[[0,0.5],[1,0.5]];portConstraint=eastwest;rotatable=0;whiteSpace=wrap;html=1;fontFamily=Times New Roman;fontSize=20;fontColor=default;" parent="SjlvnA77EbKESXoycACg-9" vertex="1">
          <mxGeometry y="90" width="140" height="30" as="geometry" />
        </mxCell>
        <mxCell id="SjlvnA77EbKESXoycACg-21" value="provoncia" style="text;strokeColor=none;fillColor=none;align=left;verticalAlign=middle;spacingLeft=4;spacingRight=4;overflow=hidden;points=[[0,0.5],[1,0.5]];portConstraint=eastwest;rotatable=0;whiteSpace=wrap;html=1;fontFamily=Times New Roman;fontSize=20;fontColor=default;labelBackgroundColor=default;" parent="SjlvnA77EbKESXoycACg-9" vertex="1">
          <mxGeometry y="120" width="140" height="30" as="geometry" />
        </mxCell>
        <mxCell id="SjlvnA77EbKESXoycACg-24" value="nazione" style="text;strokeColor=none;fillColor=none;align=left;verticalAlign=middle;spacingLeft=4;spacingRight=4;overflow=hidden;points=[[0,0.5],[1,0.5]];portConstraint=eastwest;rotatable=0;whiteSpace=wrap;html=1;fontFamily=Times New Roman;fontSize=20;fontColor=default;labelBackgroundColor=default;" parent="SjlvnA77EbKESXoycACg-9" vertex="1">
          <mxGeometry y="150" width="140" height="30" as="geometry" />
        </mxCell>
        <mxCell id="SjlvnA77EbKESXoycACg-25" value="cap" style="text;strokeColor=none;fillColor=none;align=left;verticalAlign=middle;spacingLeft=4;spacingRight=4;overflow=hidden;points=[[0,0.5],[1,0.5]];portConstraint=eastwest;rotatable=0;whiteSpace=wrap;html=1;fontFamily=Times New Roman;fontSize=20;fontColor=default;labelBackgroundColor=default;" parent="SjlvnA77EbKESXoycACg-9" vertex="1">
          <mxGeometry y="180" width="140" height="30" as="geometry" />
        </mxCell>
        <mxCell id="SjlvnA77EbKESXoycACg-19" value="&lt;b&gt;nota1: &lt;/b&gt;la password non sarÃ  salvata in chiaro&lt;div&gt;&lt;b&gt;nota2:&lt;/b&gt;&amp;nbsp;Ã© stato usata una lista per l&#39;attributo composto per favorire la legibilitÃ  dello schema&lt;/div&gt;&lt;div&gt;&lt;b&gt;nota3:&lt;/b&gt;&amp;nbsp;elazione modifica non Ã© definitiva&lt;/div&gt;&lt;div&gt;&lt;b&gt;nota4:&lt;/b&gt;&amp;nbsp;sostituire le parole tronche&lt;/div&gt;" style="whiteSpace=wrap;html=1;shape=mxgraph.basic.document;strokeColor=default;align=left;verticalAlign=middle;fontFamily=Times New Roman;fontSize=15;fontColor=default;labelBackgroundColor=default;fillColor=default;" parent="1" vertex="1">
          <mxGeometry x="610" y="920" width="210" height="234" as="geometry" />
        </mxCell>
        <mxCell id="SjlvnA77EbKESXoycACg-35" style="edgeStyle=orthogonalEdgeStyle;shape=connector;rounded=0;orthogonalLoop=1;jettySize=auto;html=1;exitX=0;exitY=0.5;exitDx=0;exitDy=0;entryX=1;entryY=0.5;entryDx=0;entryDy=0;strokeColor=default;align=center;verticalAlign=middle;fontFamily=Times New Roman;fontSize=20;fontColor=default;labelBackgroundColor=default;endArrow=none;endFill=0;" parent="1" source="SjlvnA77EbKESXoycACg-28" target="SjlvnA77EbKESXoycACg-31" edge="1">
          <mxGeometry relative="1" as="geometry" />
        </mxCell>
        <mxCell id="SjlvnA77EbKESXoycACg-28" value="&lt;font style=&quot;font-size: 14px;&quot;&gt;dati anagrafici&lt;/font&gt;" style="ellipse;whiteSpace=wrap;html=1;strokeColor=default;align=center;verticalAlign=middle;fontFamily=Times New Roman;fontSize=20;fontColor=default;labelBackgroundColor=default;fillColor=default;" parent="1" vertex="1">
          <mxGeometry x="-620" y="100" width="100" height="60" as="geometry" />
        </mxCell>
        <mxCell id="SjlvnA77EbKESXoycACg-31" value="composto" style="swimlane;fontStyle=0;childLayout=stackLayout;horizontal=1;startSize=30;horizontalStack=0;resizeParent=1;resizeParentMax=0;resizeLast=0;collapsible=1;marginBottom=0;whiteSpace=wrap;html=1;strokeColor=default;align=center;verticalAlign=middle;fontFamily=Times New Roman;fontSize=20;fontColor=default;labelBackgroundColor=default;fillColor=default;" parent="1" vertex="1" collapsed="1">
          <mxGeometry x="-800" y="40" width="120" height="40" as="geometry">
            <mxRectangle x="-310" y="70" width="140" height="120" as="alternateBounds" />
          </mxGeometry>
        </mxCell>
        <mxCell id="SjlvnA77EbKESXoycACg-32" value="nome" style="text;strokeColor=none;fillColor=none;align=left;verticalAlign=middle;spacingLeft=4;spacingRight=4;overflow=hidden;points=[[0,0.5],[1,0.5]];portConstraint=eastwest;rotatable=0;whiteSpace=wrap;html=1;fontFamily=Times New Roman;fontSize=20;fontColor=default;labelBackgroundColor=default;" parent="SjlvnA77EbKESXoycACg-31" vertex="1">
          <mxGeometry y="30" width="140" height="30" as="geometry" />
        </mxCell>
        <mxCell id="SjlvnA77EbKESXoycACg-33" value="cognome" style="text;strokeColor=none;fillColor=none;align=left;verticalAlign=middle;spacingLeft=4;spacingRight=4;overflow=hidden;points=[[0,0.5],[1,0.5]];portConstraint=eastwest;rotatable=0;whiteSpace=wrap;html=1;fontFamily=Times New Roman;fontSize=20;fontColor=default;labelBackgroundColor=default;" parent="SjlvnA77EbKESXoycACg-31" vertex="1">
          <mxGeometry y="60" width="140" height="30" as="geometry" />
        </mxCell>
        <mxCell id="SjlvnA77EbKESXoycACg-34" value="data di nascita" style="text;strokeColor=none;fillColor=none;align=left;verticalAlign=middle;spacingLeft=4;spacingRight=4;overflow=hidden;points=[[0,0.5],[1,0.5]];portConstraint=eastwest;rotatable=0;whiteSpace=wrap;html=1;fontFamily=Times New Roman;fontSize=20;fontColor=default;labelBackgroundColor=default;" parent="SjlvnA77EbKESXoycACg-31" vertex="1">
          <mxGeometry y="90" width="140" height="30" as="geometry" />
        </mxCell>
        <mxCell id="SjlvnA77EbKESXoycACg-36" value="ADMIN" style="rounded=0;whiteSpace=wrap;html=1;strokeColor=default;align=center;verticalAlign=middle;fontFamily=Times New Roman;fontSize=20;fontColor=default;labelBackgroundColor=default;fillColor=default;" parent="1" vertex="1">
          <mxGeometry x="570" y="641.05" width="120" height="60" as="geometry" />
        </mxCell>
        <mxCell id="SjlvnA77EbKESXoycACg-41" style="edgeStyle=orthogonalEdgeStyle;shape=connector;rounded=0;orthogonalLoop=1;jettySize=auto;html=1;exitX=0.5;exitY=0;exitDx=0;exitDy=0;entryX=1;entryY=1;entryDx=0;entryDy=0;strokeColor=default;align=center;verticalAlign=middle;fontFamily=Times New Roman;fontSize=20;fontColor=default;labelBackgroundColor=default;endArrow=none;endFill=0;" parent="1" source="SjlvnA77EbKESXoycACg-37" target="SjlvnA77EbKESXoycACg-36" edge="1">
          <mxGeometry relative="1" as="geometry" />
        </mxCell>
        <mxCell id="SjlvnA77EbKESXoycACg-37" value="a_email" style="ellipse;whiteSpace=wrap;html=1;fontSize=20;fontFamily=Times New Roman;" parent="1" vertex="1">
          <mxGeometry x="710" y="761.05" width="100" height="60" as="geometry" />
        </mxCell>
        <mxCell id="SjlvnA77EbKESXoycACg-42" style="edgeStyle=orthogonalEdgeStyle;shape=connector;rounded=0;orthogonalLoop=1;jettySize=auto;html=1;exitX=1;exitY=0;exitDx=0;exitDy=0;entryX=0.75;entryY=1;entryDx=0;entryDy=0;strokeColor=default;align=center;verticalAlign=middle;fontFamily=Times New Roman;fontSize=20;fontColor=default;labelBackgroundColor=default;endArrow=none;endFill=0;" parent="1" source="SjlvnA77EbKESXoycACg-38" target="SjlvnA77EbKESXoycACg-36" edge="1">
          <mxGeometry relative="1" as="geometry" />
        </mxCell>
        <mxCell id="SjlvnA77EbKESXoycACg-38" value="a_password" style="ellipse;whiteSpace=wrap;html=1;fontSize=20;fontFamily=Times New Roman;" parent="1" vertex="1">
          <mxGeometry x="590" y="761.05" width="100" height="60" as="geometry" />
        </mxCell>
        <mxCell id="SjlvnA77EbKESXoycACg-44" style="edgeStyle=orthogonalEdgeStyle;shape=connector;rounded=0;orthogonalLoop=1;jettySize=auto;html=1;exitX=1;exitY=0.5;exitDx=0;exitDy=0;entryX=0.25;entryY=1;entryDx=0;entryDy=0;strokeColor=default;align=center;verticalAlign=middle;fontFamily=Times New Roman;fontSize=20;fontColor=default;labelBackgroundColor=default;endArrow=none;endFill=0;" parent="1" source="SjlvnA77EbKESXoycACg-39" target="SjlvnA77EbKESXoycACg-36" edge="1">
          <mxGeometry relative="1" as="geometry">
            <Array as="points">
              <mxPoint x="510" y="731.05" />
              <mxPoint x="600" y="731.05" />
            </Array>
          </mxGeometry>
        </mxCell>
        <mxCell id="SjlvnA77EbKESXoycACg-45" style="edgeStyle=orthogonalEdgeStyle;shape=connector;rounded=0;orthogonalLoop=1;jettySize=auto;html=1;exitX=1;exitY=0.5;exitDx=0;exitDy=0;entryX=0;entryY=0.5;entryDx=0;entryDy=0;strokeColor=default;align=center;verticalAlign=middle;fontFamily=Times New Roman;fontSize=20;fontColor=default;labelBackgroundColor=default;endArrow=none;endFill=0;" parent="1" source="SjlvnA77EbKESXoycACg-40" target="SjlvnA77EbKESXoycACg-36" edge="1">
          <mxGeometry relative="1" as="geometry" />
        </mxCell>
        <mxCell id="SjlvnA77EbKESXoycACg-40" value="&lt;u&gt;id_admin&lt;/u&gt;" style="ellipse;whiteSpace=wrap;html=1;fontSize=20;fontFamily=Times New Roman;" parent="1" vertex="1">
          <mxGeometry x="380" y="741.05" width="100" height="60" as="geometry" />
        </mxCell>
        <mxCell id="SjlvnA77EbKESXoycACg-46" value="PRODOTTO" style="rounded=0;whiteSpace=wrap;html=1;strokeColor=default;align=center;verticalAlign=middle;fontFamily=Times New Roman;fontSize=20;fontColor=default;labelBackgroundColor=default;fillColor=default;" parent="1" vertex="1">
          <mxGeometry x="200" y="300" width="120" height="60" as="geometry" />
        </mxCell>
        <mxCell id="SjlvnA77EbKESXoycACg-63" style="edgeStyle=orthogonalEdgeStyle;shape=connector;rounded=0;orthogonalLoop=1;jettySize=auto;html=1;exitX=0.5;exitY=1;exitDx=0;exitDy=0;entryX=0.5;entryY=0;entryDx=0;entryDy=0;strokeColor=default;align=center;verticalAlign=middle;fontFamily=Times New Roman;fontSize=20;fontColor=default;labelBackgroundColor=default;endArrow=none;endFill=0;" parent="1" source="SjlvnA77EbKESXoycACg-47" target="SjlvnA77EbKESXoycACg-46" edge="1">
          <mxGeometry relative="1" as="geometry" />
        </mxCell>
        <mxCell id="SjlvnA77EbKESXoycACg-61" style="edgeStyle=orthogonalEdgeStyle;shape=connector;rounded=0;orthogonalLoop=1;jettySize=auto;html=1;exitX=0.5;exitY=1;exitDx=0;exitDy=0;entryX=1;entryY=0;entryDx=0;entryDy=0;strokeColor=default;align=center;verticalAlign=middle;fontFamily=Times New Roman;fontSize=20;fontColor=default;labelBackgroundColor=default;endArrow=none;endFill=0;" parent="1" source="SjlvnA77EbKESXoycACg-48" target="SjlvnA77EbKESXoycACg-46" edge="1">
          <mxGeometry relative="1" as="geometry" />
        </mxCell>
        <mxCell id="SjlvnA77EbKESXoycACg-60" style="edgeStyle=orthogonalEdgeStyle;shape=connector;rounded=0;orthogonalLoop=1;jettySize=auto;html=1;exitX=0;exitY=0.5;exitDx=0;exitDy=0;entryX=1;entryY=0.25;entryDx=0;entryDy=0;strokeColor=default;align=center;verticalAlign=middle;fontFamily=Times New Roman;fontSize=20;fontColor=default;labelBackgroundColor=default;endArrow=none;endFill=0;" parent="1" source="SjlvnA77EbKESXoycACg-49" target="SjlvnA77EbKESXoycACg-46" edge="1">
          <mxGeometry relative="1" as="geometry" />
        </mxCell>
        <mxCell id="SjlvnA77EbKESXoycACg-49" value="marca" style="ellipse;whiteSpace=wrap;html=1;fontSize=20;fontFamily=Times New Roman;" parent="1" vertex="1">
          <mxGeometry x="390" y="410" width="100" height="60" as="geometry" />
        </mxCell>
        <mxCell id="SjlvnA77EbKESXoycACg-57" style="edgeStyle=orthogonalEdgeStyle;shape=connector;rounded=0;orthogonalLoop=1;jettySize=auto;html=1;exitX=0;exitY=0.5;exitDx=0;exitDy=0;entryX=1;entryY=1;entryDx=0;entryDy=0;strokeColor=default;align=center;verticalAlign=middle;fontFamily=Times New Roman;fontSize=20;fontColor=default;labelBackgroundColor=default;endArrow=none;endFill=0;" parent="1" source="0uigxhlXDYKZX2fZEs79-1" target="SjlvnA77EbKESXoycACg-46" edge="1">
          <mxGeometry relative="1" as="geometry">
            <mxPoint x="400" y="380" as="sourcePoint" />
          </mxGeometry>
        </mxCell>
        <mxCell id="SjlvnA77EbKESXoycACg-58" style="edgeStyle=orthogonalEdgeStyle;shape=connector;rounded=0;orthogonalLoop=1;jettySize=auto;html=1;exitX=0;exitY=0.5;exitDx=0;exitDy=0;entryX=1;entryY=0.75;entryDx=0;entryDy=0;strokeColor=default;align=center;verticalAlign=middle;fontFamily=Times New Roman;fontSize=20;fontColor=default;labelBackgroundColor=default;endArrow=none;endFill=0;" parent="1" source="SjlvnA77EbKESXoycACg-51" target="SjlvnA77EbKESXoycACg-46" edge="1">
          <mxGeometry relative="1" as="geometry" />
        </mxCell>
        <mxCell id="SjlvnA77EbKESXoycACg-51" value="descrizione" style="ellipse;whiteSpace=wrap;html=1;fontSize=20;fontFamily=Times New Roman;" parent="1" vertex="1">
          <mxGeometry x="420" y="290" width="100" height="60" as="geometry" />
        </mxCell>
        <mxCell id="SjlvnA77EbKESXoycACg-65" style="edgeStyle=orthogonalEdgeStyle;shape=connector;rounded=0;orthogonalLoop=1;jettySize=auto;html=1;exitX=0.5;exitY=1;exitDx=0;exitDy=0;entryX=0;entryY=0;entryDx=0;entryDy=0;strokeColor=default;align=center;verticalAlign=middle;fontFamily=Times New Roman;fontSize=20;fontColor=default;labelBackgroundColor=default;endArrow=none;endFill=0;" parent="1" source="SjlvnA77EbKESXoycACg-52" target="SjlvnA77EbKESXoycACg-46" edge="1">
          <mxGeometry relative="1" as="geometry" />
        </mxCell>
        <mxCell id="SjlvnA77EbKESXoycACg-52" value="&lt;u&gt;id_prodotto&lt;/u&gt;" style="ellipse;whiteSpace=wrap;html=1;fontSize=20;fontFamily=Times New Roman;" parent="1" vertex="1">
          <mxGeometry x="90" y="190" width="100" height="60" as="geometry" />
        </mxCell>
        <mxCell id="SjlvnA77EbKESXoycACg-53" value="diametro" style="ellipse;whiteSpace=wrap;html=1;fontSize=20;fontFamily=Times New Roman;" parent="1" vertex="1">
          <mxGeometry x="390" y="170" width="100" height="60" as="geometry" />
        </mxCell>
        <mxCell id="SjlvnA77EbKESXoycACg-64" style="edgeStyle=orthogonalEdgeStyle;shape=connector;rounded=0;orthogonalLoop=1;jettySize=auto;html=1;exitX=0.5;exitY=1;exitDx=0;exitDy=0;entryX=0.25;entryY=0;entryDx=0;entryDy=0;strokeColor=default;align=center;verticalAlign=middle;fontFamily=Times New Roman;fontSize=20;fontColor=default;labelBackgroundColor=default;endArrow=none;endFill=0;" parent="1" source="SjlvnA77EbKESXoycACg-54" target="SjlvnA77EbKESXoycACg-46" edge="1">
          <mxGeometry relative="1" as="geometry" />
        </mxCell>
        <mxCell id="SjlvnA77EbKESXoycACg-54" value="nome_p" style="ellipse;whiteSpace=wrap;html=1;fontSize=20;fontFamily=Times New Roman;" parent="1" vertex="1">
          <mxGeometry x="160" y="130" width="100" height="60" as="geometry" />
        </mxCell>
        <mxCell id="SjlvnA77EbKESXoycACg-62" style="edgeStyle=orthogonalEdgeStyle;shape=connector;rounded=0;orthogonalLoop=1;jettySize=auto;html=1;exitX=0.5;exitY=1;exitDx=0;exitDy=0;entryX=0.75;entryY=0;entryDx=0;entryDy=0;strokeColor=default;align=center;verticalAlign=middle;fontFamily=Times New Roman;fontSize=20;fontColor=default;labelBackgroundColor=default;endArrow=none;endFill=0;" parent="1" source="SjlvnA77EbKESXoycACg-55" target="SjlvnA77EbKESXoycACg-46" edge="1">
          <mxGeometry relative="1" as="geometry" />
        </mxCell>
        <mxCell id="SjlvnA77EbKESXoycACg-55" value="tipo" style="ellipse;whiteSpace=wrap;html=1;fontSize=20;fontFamily=Times New Roman;" parent="1" vertex="1">
          <mxGeometry x="270" y="130" width="100" height="60" as="geometry" />
        </mxCell>
        <mxCell id="SjlvnA77EbKESXoycACg-59" style="edgeStyle=orthogonalEdgeStyle;shape=connector;rounded=0;orthogonalLoop=1;jettySize=auto;html=1;exitX=0;exitY=0.5;exitDx=0;exitDy=0;entryX=1;entryY=0.5;entryDx=0;entryDy=0;strokeColor=default;align=center;verticalAlign=middle;fontFamily=Times New Roman;fontSize=20;fontColor=default;labelBackgroundColor=default;endArrow=none;endFill=0;" parent="1" source="SjlvnA77EbKESXoycACg-56" target="SjlvnA77EbKESXoycACg-46" edge="1">
          <mxGeometry relative="1" as="geometry" />
        </mxCell>
        <mxCell id="SjlvnA77EbKESXoycACg-56" value="larghezza" style="ellipse;whiteSpace=wrap;html=1;fontSize=20;fontFamily=Times New Roman;" parent="1" vertex="1">
          <mxGeometry x="420" y="230" width="100" height="60" as="geometry" />
        </mxCell>
        <mxCell id="SjlvnA77EbKESXoycACg-47" value="quantitÃ " style="ellipse;whiteSpace=wrap;html=1;fontSize=20;fontFamily=Times New Roman;" parent="1" vertex="1">
          <mxGeometry x="190" y="190" width="100" height="60" as="geometry" />
        </mxCell>
        <mxCell id="SjlvnA77EbKESXoycACg-48" value="peso" style="ellipse;whiteSpace=wrap;html=1;fontSize=20;fontFamily=Times New Roman;" parent="1" vertex="1">
          <mxGeometry x="290" y="190" width="100" height="60" as="geometry" />
        </mxCell>
        <mxCell id="0uigxhlXDYKZX2fZEs79-1" value="&lt;font face=&quot;Times New Roman&quot; style=&quot;font-size: 20px;&quot;&gt;foto&lt;/font&gt;" style="ellipse;shape=doubleEllipse;whiteSpace=wrap;html=1;" parent="1" vertex="1">
          <mxGeometry x="400" y="350" width="100" height="60" as="geometry" />
        </mxCell>
        <mxCell id="SjlvnA77EbKESXoycACg-39" value="username" style="ellipse;whiteSpace=wrap;html=1;fontSize=20;fontFamily=Times New Roman;" parent="1" vertex="1">
          <mxGeometry x="480" y="751.05" width="100" height="60" as="geometry" />
        </mxCell>
        <mxCell id="0uigxhlXDYKZX2fZEs79-4" style="edgeStyle=orthogonalEdgeStyle;rounded=0;orthogonalLoop=1;jettySize=auto;html=1;exitX=0.5;exitY=0;exitDx=0;exitDy=0;entryX=0.5;entryY=1;entryDx=0;entryDy=0;endArrow=none;endFill=0;" parent="1" source="0uigxhlXDYKZX2fZEs79-3" target="SjlvnA77EbKESXoycACg-46" edge="1">
          <mxGeometry relative="1" as="geometry" />
        </mxCell>
        <mxCell id="0uigxhlXDYKZX2fZEs79-6" value="(1,N)" style="edgeLabel;html=1;align=center;verticalAlign=middle;resizable=0;points=[];" parent="0uigxhlXDYKZX2fZEs79-4" vertex="1" connectable="0">
          <mxGeometry x="0.4955" y="2" relative="1" as="geometry">
            <mxPoint as="offset" />
          </mxGeometry>
        </mxCell>
        <mxCell id="0uigxhlXDYKZX2fZEs79-9" value="N" style="edgeLabel;html=1;align=center;verticalAlign=middle;resizable=0;points=[];" parent="0uigxhlXDYKZX2fZEs79-4" vertex="1" connectable="0">
          <mxGeometry x="-0.5521" y="-1" relative="1" as="geometry">
            <mxPoint as="offset" />
          </mxGeometry>
        </mxCell>
        <mxCell id="0uigxhlXDYKZX2fZEs79-5" style="edgeStyle=orthogonalEdgeStyle;rounded=0;orthogonalLoop=1;jettySize=auto;html=1;exitX=0.5;exitY=1;exitDx=0;exitDy=0;entryX=0.5;entryY=0;entryDx=0;entryDy=0;endArrow=none;endFill=0;" parent="1" source="0uigxhlXDYKZX2fZEs79-3" target="SjlvnA77EbKESXoycACg-36" edge="1">
          <mxGeometry relative="1" as="geometry" />
        </mxCell>
        <mxCell id="0uigxhlXDYKZX2fZEs79-7" value="(0,N)" style="edgeLabel;html=1;align=center;verticalAlign=middle;resizable=0;points=[];" parent="0uigxhlXDYKZX2fZEs79-5" vertex="1" connectable="0">
          <mxGeometry x="0.5911" relative="1" as="geometry">
            <mxPoint as="offset" />
          </mxGeometry>
        </mxCell>
        <mxCell id="0uigxhlXDYKZX2fZEs79-8" value="N" style="edgeLabel;html=1;align=center;verticalAlign=middle;resizable=0;points=[];fontSize=15;" parent="0uigxhlXDYKZX2fZEs79-5" vertex="1" connectable="0">
          <mxGeometry x="-0.7224" y="-3" relative="1" as="geometry">
            <mxPoint as="offset" />
          </mxGeometry>
        </mxCell>
        <mxCell id="0uigxhlXDYKZX2fZEs79-3" value="&lt;font style=&quot;font-size: 18px;&quot;&gt;modifica&lt;/font&gt;" style="rhombus;whiteSpace=wrap;html=1;" parent="1" vertex="1">
          <mxGeometry x="200" y="470" width="120" height="80" as="geometry" />
        </mxCell>
        <mxCell id="0uigxhlXDYKZX2fZEs79-12" style="edgeStyle=orthogonalEdgeStyle;rounded=0;orthogonalLoop=1;jettySize=auto;html=1;exitX=0.5;exitY=0;exitDx=0;exitDy=0;entryX=0.5;entryY=1;entryDx=0;entryDy=0;endArrow=none;endFill=0;" parent="1" source="0uigxhlXDYKZX2fZEs79-11" target="SjlvnA77EbKESXoycACg-2" edge="1">
          <mxGeometry relative="1" as="geometry" />
        </mxCell>
        <mxCell id="0uigxhlXDYKZX2fZEs79-16" value="&lt;font style=&quot;font-size: 14px;&quot;&gt;(0,N)&lt;/font&gt;" style="edgeLabel;html=1;align=center;verticalAlign=middle;resizable=0;points=[];fontFamily=Helvetica;fontSize=11;fontColor=default;labelBackgroundColor=default;" parent="0uigxhlXDYKZX2fZEs79-12" vertex="1" connectable="0">
          <mxGeometry x="0.5589" y="3" relative="1" as="geometry">
            <mxPoint as="offset" />
          </mxGeometry>
        </mxCell>
        <mxCell id="0uigxhlXDYKZX2fZEs79-18" value="&lt;font style=&quot;font-size: 16px;&quot;&gt;1&lt;/font&gt;" style="edgeLabel;html=1;align=center;verticalAlign=middle;resizable=0;points=[];fontFamily=Helvetica;fontSize=11;fontColor=default;labelBackgroundColor=default;" parent="0uigxhlXDYKZX2fZEs79-12" vertex="1" connectable="0">
          <mxGeometry x="-0.4768" y="-3" relative="1" as="geometry">
            <mxPoint as="offset" />
          </mxGeometry>
        </mxCell>
        <mxCell id="0uigxhlXDYKZX2fZEs79-11" value="&lt;font style=&quot;font-size: 19px;&quot;&gt;fa&lt;/font&gt;" style="rhombus;whiteSpace=wrap;html=1;" parent="1" vertex="1">
          <mxGeometry x="-390" y="440" width="80" height="80" as="geometry" />
        </mxCell>
        <mxCell id="0uigxhlXDYKZX2fZEs79-15" style="edgeStyle=orthogonalEdgeStyle;shape=connector;rounded=0;orthogonalLoop=1;jettySize=auto;html=1;exitX=0.5;exitY=0;exitDx=0;exitDy=0;entryX=0.5;entryY=1;entryDx=0;entryDy=0;strokeColor=default;align=center;verticalAlign=middle;fontFamily=Helvetica;fontSize=11;fontColor=default;labelBackgroundColor=default;endArrow=none;endFill=0;" parent="1" source="0uigxhlXDYKZX2fZEs79-14" target="0uigxhlXDYKZX2fZEs79-11" edge="1">
          <mxGeometry relative="1" as="geometry" />
        </mxCell>
        <mxCell id="0uigxhlXDYKZX2fZEs79-17" value="&lt;font style=&quot;font-size: 14px;&quot;&gt;(1,1)&lt;/font&gt;" style="edgeLabel;html=1;align=center;verticalAlign=middle;resizable=0;points=[];fontFamily=Helvetica;fontSize=11;fontColor=default;labelBackgroundColor=default;" parent="0uigxhlXDYKZX2fZEs79-15" vertex="1" connectable="0">
          <mxGeometry x="-0.5989" y="-4" relative="1" as="geometry">
            <mxPoint as="offset" />
          </mxGeometry>
        </mxCell>
        <mxCell id="0uigxhlXDYKZX2fZEs79-19" value="&lt;span style=&quot;font-size: 16px;&quot;&gt;N&lt;/span&gt;" style="edgeLabel;html=1;align=center;verticalAlign=middle;resizable=0;points=[];fontFamily=Helvetica;fontSize=11;fontColor=default;labelBackgroundColor=default;" parent="0uigxhlXDYKZX2fZEs79-15" vertex="1" connectable="0">
          <mxGeometry x="0.58" y="-1" relative="1" as="geometry">
            <mxPoint as="offset" />
          </mxGeometry>
        </mxCell>
        <mxCell id="0uigxhlXDYKZX2fZEs79-14" value="ORDINE" style="shape=ext;double=1;rounded=0;whiteSpace=wrap;html=1;fontFamily=Times New Roman;fontSize=20;fontColor=default;labelBackgroundColor=default;" parent="1" vertex="1">
          <mxGeometry x="-687" y="630" width="120" height="60" as="geometry" />
        </mxCell>
        <mxCell id="0uigxhlXDYKZX2fZEs79-26" style="edgeStyle=orthogonalEdgeStyle;shape=connector;rounded=0;orthogonalLoop=1;jettySize=auto;html=1;exitX=1;exitY=0.5;exitDx=0;exitDy=0;entryX=0;entryY=1;entryDx=0;entryDy=0;strokeColor=default;align=center;verticalAlign=middle;fontFamily=Helvetica;fontSize=11;fontColor=default;labelBackgroundColor=default;endArrow=none;endFill=0;" parent="1" source="0uigxhlXDYKZX2fZEs79-20" target="0uigxhlXDYKZX2fZEs79-14" edge="1">
          <mxGeometry relative="1" as="geometry" />
        </mxCell>
        <mxCell id="0uigxhlXDYKZX2fZEs79-20" value="id_ordine" style="ellipse;whiteSpace=wrap;html=1;fontSize=20;fontFamily=Times New Roman;fontStyle=4" parent="1" vertex="1">
          <mxGeometry x="-827" y="651.05" width="100" height="60" as="geometry" />
        </mxCell>
        <mxCell id="0uigxhlXDYKZX2fZEs79-25" style="edgeStyle=orthogonalEdgeStyle;shape=connector;rounded=0;orthogonalLoop=1;jettySize=auto;html=1;exitX=1;exitY=0;exitDx=0;exitDy=0;entryX=0.25;entryY=1;entryDx=0;entryDy=0;strokeColor=default;align=center;verticalAlign=middle;fontFamily=Helvetica;fontSize=11;fontColor=default;labelBackgroundColor=default;endArrow=none;endFill=0;" parent="1" source="0uigxhlXDYKZX2fZEs79-21" target="0uigxhlXDYKZX2fZEs79-14" edge="1">
          <mxGeometry relative="1" as="geometry" />
        </mxCell>
        <mxCell id="0uigxhlXDYKZX2fZEs79-21" value="&lt;i&gt;ID_cliente&lt;/i&gt;" style="ellipse;whiteSpace=wrap;html=1;fontSize=20;fontFamily=Times New Roman;" parent="1" vertex="1">
          <mxGeometry x="-797" y="730" width="100" height="60" as="geometry" />
        </mxCell>
        <mxCell id="0uigxhlXDYKZX2fZEs79-24" style="edgeStyle=orthogonalEdgeStyle;shape=connector;rounded=0;orthogonalLoop=1;jettySize=auto;html=1;exitX=0.5;exitY=0;exitDx=0;exitDy=0;entryX=0.5;entryY=1;entryDx=0;entryDy=0;strokeColor=default;align=center;verticalAlign=middle;fontFamily=Helvetica;fontSize=11;fontColor=default;labelBackgroundColor=default;endArrow=none;endFill=0;" parent="1" source="0uigxhlXDYKZX2fZEs79-22" target="0uigxhlXDYKZX2fZEs79-14" edge="1">
          <mxGeometry relative="1" as="geometry" />
        </mxCell>
        <mxCell id="0uigxhlXDYKZX2fZEs79-22" value="data" style="ellipse;whiteSpace=wrap;html=1;fontSize=20;fontFamily=Times New Roman;" parent="1" vertex="1">
          <mxGeometry x="-677" y="730" width="100" height="60" as="geometry" />
        </mxCell>
        <mxCell id="0uigxhlXDYKZX2fZEs79-27" style="edgeStyle=orthogonalEdgeStyle;shape=connector;rounded=0;orthogonalLoop=1;jettySize=auto;html=1;exitX=0;exitY=0;exitDx=0;exitDy=0;entryX=0.75;entryY=1;entryDx=0;entryDy=0;strokeColor=default;align=center;verticalAlign=middle;fontFamily=Helvetica;fontSize=11;fontColor=default;labelBackgroundColor=default;endArrow=none;endFill=0;" parent="1" source="0uigxhlXDYKZX2fZEs79-23" target="0uigxhlXDYKZX2fZEs79-14" edge="1">
          <mxGeometry relative="1" as="geometry" />
        </mxCell>
        <mxCell id="0uigxhlXDYKZX2fZEs79-23" value="totale" style="ellipse;whiteSpace=wrap;html=1;fontSize=20;fontFamily=Times New Roman;dashed=1;dashPattern=8 8;" parent="1" vertex="1">
          <mxGeometry x="-547" y="711.05" width="100" height="60" as="geometry" />
        </mxCell>
        <mxCell id="ErvmEHrbimVohfqIZDGu-5" style="edgeStyle=orthogonalEdgeStyle;rounded=0;orthogonalLoop=1;jettySize=auto;html=1;exitX=0;exitY=0.5;exitDx=0;exitDy=0;endArrow=none;endFill=0;entryX=1;entryY=0.5;entryDx=0;entryDy=0;" parent="1" source="0uigxhlXDYKZX2fZEs79-28" target="0uigxhlXDYKZX2fZEs79-14" edge="1">
          <mxGeometry relative="1" as="geometry">
            <mxPoint x="-490" y="649.9999999999998" as="targetPoint" />
          </mxGeometry>
        </mxCell>
        <mxCell id="ErvmEHrbimVohfqIZDGu-14" value="&lt;font face=&quot;Times New Roman&quot; style=&quot;font-size: 16px;&quot;&gt;(1,N)&lt;/font&gt;" style="edgeLabel;html=1;align=center;verticalAlign=middle;resizable=0;points=[];" parent="ErvmEHrbimVohfqIZDGu-5" vertex="1" connectable="0">
          <mxGeometry x="0.6571" y="-3" relative="1" as="geometry">
            <mxPoint as="offset" />
          </mxGeometry>
        </mxCell>
        <mxCell id="ErvmEHrbimVohfqIZDGu-17" value="&lt;font style=&quot;font-size: 16px;&quot;&gt;1&lt;/font&gt;" style="edgeLabel;html=1;align=center;verticalAlign=middle;resizable=0;points=[];fontFamily=Helvetica;fontSize=11;fontColor=default;labelBackgroundColor=default;" parent="ErvmEHrbimVohfqIZDGu-5" vertex="1" connectable="0">
          <mxGeometry x="-0.4627" y="-4" relative="1" as="geometry">
            <mxPoint as="offset" />
          </mxGeometry>
        </mxCell>
        <mxCell id="0uigxhlXDYKZX2fZEs79-28" value="&lt;font style=&quot;font-size: 16px;&quot;&gt;contiene&lt;/font&gt;" style="rhombus;whiteSpace=wrap;html=1;" parent="1" vertex="1">
          <mxGeometry x="-380" y="620" width="80" height="80" as="geometry" />
        </mxCell>
        <mxCell id="ErvmEHrbimVohfqIZDGu-4" style="edgeStyle=orthogonalEdgeStyle;rounded=0;orthogonalLoop=1;jettySize=auto;html=1;exitX=1;exitY=0.5;exitDx=0;exitDy=0;entryX=0;entryY=0.5;entryDx=0;entryDy=0;endArrow=none;endFill=0;fontSize=16;" parent="1" source="0uigxhlXDYKZX2fZEs79-29" target="SjlvnA77EbKESXoycACg-46" edge="1">
          <mxGeometry relative="1" as="geometry" />
        </mxCell>
        <mxCell id="ErvmEHrbimVohfqIZDGu-20" value="&lt;font style=&quot;font-size: 16px;&quot;&gt;(0,N)&lt;/font&gt;" style="edgeLabel;html=1;align=center;verticalAlign=middle;resizable=0;points=[];fontFamily=Helvetica;fontSize=11;fontColor=default;labelBackgroundColor=default;" parent="ErvmEHrbimVohfqIZDGu-4" vertex="1" connectable="0">
          <mxGeometry x="0.6938" y="-1" relative="1" as="geometry">
            <mxPoint as="offset" />
          </mxGeometry>
        </mxCell>
        <mxCell id="ErvmEHrbimVohfqIZDGu-21" value="&lt;font style=&quot;font-size: 16px;&quot;&gt;1&lt;/font&gt;" style="edgeLabel;html=1;align=center;verticalAlign=middle;resizable=0;points=[];fontFamily=Helvetica;fontSize=11;fontColor=default;labelBackgroundColor=default;" parent="ErvmEHrbimVohfqIZDGu-4" vertex="1" connectable="0">
          <mxGeometry x="-0.7815" y="2" relative="1" as="geometry">
            <mxPoint as="offset" />
          </mxGeometry>
        </mxCell>
        <mxCell id="0uigxhlXDYKZX2fZEs79-29" value="Ã©" style="rhombus;whiteSpace=wrap;html=1;" parent="1" vertex="1">
          <mxGeometry y="440" width="80" height="80" as="geometry" />
        </mxCell>
        <mxCell id="ErvmEHrbimVohfqIZDGu-3" style="edgeStyle=orthogonalEdgeStyle;rounded=0;orthogonalLoop=1;jettySize=auto;html=1;exitX=0.75;exitY=0;exitDx=0;exitDy=0;entryX=0;entryY=0.5;entryDx=0;entryDy=0;endArrow=none;endFill=0;fontSize=16;" parent="1" source="ErvmEHrbimVohfqIZDGu-2" target="0uigxhlXDYKZX2fZEs79-29" edge="1">
          <mxGeometry relative="1" as="geometry" />
        </mxCell>
        <mxCell id="ErvmEHrbimVohfqIZDGu-19" value="&lt;font style=&quot;font-size: 16px;&quot;&gt;(1,1)&lt;/font&gt;" style="edgeLabel;html=1;align=center;verticalAlign=middle;resizable=0;points=[];fontFamily=Helvetica;fontSize=11;fontColor=default;labelBackgroundColor=default;" parent="ErvmEHrbimVohfqIZDGu-3" vertex="1" connectable="0">
          <mxGeometry x="-0.7818" y="6" relative="1" as="geometry">
            <mxPoint as="offset" />
          </mxGeometry>
        </mxCell>
        <mxCell id="ErvmEHrbimVohfqIZDGu-22" value="&lt;font style=&quot;font-size: 16px;&quot;&gt;N&lt;/font&gt;" style="edgeLabel;html=1;align=center;verticalAlign=middle;resizable=0;points=[];fontFamily=Helvetica;fontSize=11;fontColor=default;labelBackgroundColor=default;" parent="ErvmEHrbimVohfqIZDGu-3" vertex="1" connectable="0">
          <mxGeometry x="0.6242" y="2" relative="1" as="geometry">
            <mxPoint as="offset" />
          </mxGeometry>
        </mxCell>
        <mxCell id="ErvmEHrbimVohfqIZDGu-6" style="edgeStyle=orthogonalEdgeStyle;rounded=0;orthogonalLoop=1;jettySize=auto;html=1;exitX=0;exitY=0.5;exitDx=0;exitDy=0;entryX=1;entryY=0.5;entryDx=0;entryDy=0;endArrow=none;endFill=0;" parent="1" source="ErvmEHrbimVohfqIZDGu-2" target="0uigxhlXDYKZX2fZEs79-28" edge="1">
          <mxGeometry relative="1" as="geometry" />
        </mxCell>
        <mxCell id="ErvmEHrbimVohfqIZDGu-16" value="&lt;font style=&quot;font-size: 16px;&quot;&gt;(1,1)&lt;/font&gt;" style="edgeLabel;html=1;align=center;verticalAlign=middle;resizable=0;points=[];fontFamily=Helvetica;fontSize=11;fontColor=default;labelBackgroundColor=default;" parent="ErvmEHrbimVohfqIZDGu-6" vertex="1" connectable="0">
          <mxGeometry x="-0.6151" y="-2" relative="1" as="geometry">
            <mxPoint as="offset" />
          </mxGeometry>
        </mxCell>
        <mxCell id="ErvmEHrbimVohfqIZDGu-18" value="&lt;font style=&quot;font-size: 16px;&quot;&gt;N&lt;/font&gt;" style="edgeLabel;html=1;align=center;verticalAlign=middle;resizable=0;points=[];fontFamily=Helvetica;fontSize=11;fontColor=default;labelBackgroundColor=default;" parent="ErvmEHrbimVohfqIZDGu-6" vertex="1" connectable="0">
          <mxGeometry x="0.4908" y="-1" relative="1" as="geometry">
            <mxPoint as="offset" />
          </mxGeometry>
        </mxCell>
        <mxCell id="ErvmEHrbimVohfqIZDGu-2" value="ELEMENTI" style="shape=ext;double=1;rounded=0;whiteSpace=wrap;html=1;fontFamily=Times New Roman;fontSize=20;fontColor=default;labelBackgroundColor=default;" parent="1" vertex="1">
          <mxGeometry x="-160" y="630" width="120" height="60" as="geometry" />
        </mxCell>
        <mxCell id="ErvmEHrbimVohfqIZDGu-10" style="edgeStyle=orthogonalEdgeStyle;rounded=0;orthogonalLoop=1;jettySize=auto;html=1;exitX=0.5;exitY=0;exitDx=0;exitDy=0;entryX=0.25;entryY=1;entryDx=0;entryDy=0;endArrow=none;endFill=0;" parent="1" source="ErvmEHrbimVohfqIZDGu-7" target="ErvmEHrbimVohfqIZDGu-2" edge="1">
          <mxGeometry relative="1" as="geometry" />
        </mxCell>
        <mxCell id="ErvmEHrbimVohfqIZDGu-7" value="&lt;i&gt;ID_prodotto&lt;/i&gt;" style="ellipse;whiteSpace=wrap;html=1;fontSize=20;fontFamily=Times New Roman;fontStyle=4" parent="1" vertex="1">
          <mxGeometry x="-140" y="721.05" width="100" height="60" as="geometry" />
        </mxCell>
        <mxCell id="ErvmEHrbimVohfqIZDGu-9" style="edgeStyle=orthogonalEdgeStyle;rounded=0;orthogonalLoop=1;jettySize=auto;html=1;exitX=1;exitY=0;exitDx=0;exitDy=0;entryX=0;entryY=1;entryDx=0;entryDy=0;endArrow=none;endFill=0;" parent="1" source="ErvmEHrbimVohfqIZDGu-8" target="ErvmEHrbimVohfqIZDGu-2" edge="1">
          <mxGeometry relative="1" as="geometry" />
        </mxCell>
        <mxCell id="ErvmEHrbimVohfqIZDGu-8" value="&lt;i&gt;ID_ordine&lt;/i&gt;" style="ellipse;whiteSpace=wrap;html=1;fontSize=20;fontFamily=Times New Roman;fontStyle=4" parent="1" vertex="1">
          <mxGeometry x="-260" y="721.05" width="100" height="60" as="geometry" />
        </mxCell>
        <mxCell id="ErvmEHrbimVohfqIZDGu-13" style="edgeStyle=orthogonalEdgeStyle;rounded=0;orthogonalLoop=1;jettySize=auto;html=1;exitX=0;exitY=0;exitDx=0;exitDy=0;entryX=1;entryY=1;entryDx=0;entryDy=0;endArrow=none;endFill=0;" parent="1" source="ErvmEHrbimVohfqIZDGu-12" target="ErvmEHrbimVohfqIZDGu-2" edge="1">
          <mxGeometry relative="1" as="geometry" />
        </mxCell>
        <mxCell id="ErvmEHrbimVohfqIZDGu-12" value="tot_parziale" style="ellipse;whiteSpace=wrap;html=1;fontSize=20;fontFamily=Times New Roman;dashed=1;dashPattern=8 8;" parent="1" vertex="1">
          <mxGeometry x="-20" y="711.05" width="100" height="60" as="geometry" />
        </mxCell>
      </root>
    </mxGraphModel>
  </diagram>
</mxfile>
